<svg width="1512" height="711" viewBox="0 0 1512 711" fill="none" xmlns="http://www.w3.org/2000/svg">
<g clip-path="url(#clip0_3371_42960)">
<rect width="1512" height="710" transform="translate(0 0.105469)" fill="#FFFCFA"/>
<g opacity="0.3">
<path opacity="0.1" d="M241.46 147.487C240.448 139.415 240.756 132.565 241.289 126.479C241.429 124.883 241.585 123.336 241.737 121.831C242.162 117.613 242.554 113.728 242.465 110.031C242.344 104.993 241.334 100.265 238.307 95.4155C235.284 90.5718 230.267 85.6348 222.185 80.1499C155.4 34.8253 55.4372 44.4715 -1.08636 101.7C-7.62115 108.316 -11.424 114.211 -13.4213 119.828C-15.419 125.446 -15.6002 130.757 -14.9378 136.194C-14.4322 140.343 -13.4315 144.585 -12.369 149.088C-12.043 150.471 -11.7111 151.877 -11.3859 153.314C-9.99829 159.443 -8.72268 166.146 -8.49879 173.878C-8.28792 181.16 -8.56732 189.099 -8.85769 197.35C-8.9283 199.357 -8.99955 201.381 -9.06456 203.42C-9.39667 213.832 -9.56524 224.584 -8.64339 234.969C-6.80083 255.725 -0.594775 275.108 17.4999 287.388C84.2888 332.715 185.379 321.921 240.772 265.838C255.183 251.247 256.378 230.228 253.497 208.652C252.055 197.85 249.585 186.87 247.207 176.44L246.964 175.375C244.674 165.33 242.507 155.827 241.46 147.487Z" fill="url(#paint0_linear_3371_42960)" stroke="white"/>
<path opacity="0.1" d="M9.98139 97.5915C-2.33098 109.456 -7.69255 121.044 -9.78478 133.982C-11.5419 144.847 -10.9904 156.67 -10.3518 170.362C-10.2324 172.92 -10.1101 175.544 -9.99913 178.238C-7.07043 249.381 43.8245 314.866 125.772 313.1C135.231 312.896 142.43 311.453 148.302 309.062C154.176 306.671 158.698 303.34 162.815 299.397C165.956 296.389 168.873 293.01 171.969 289.424C172.919 288.324 173.885 287.204 174.881 286.069C179.128 281.227 183.921 276.082 190.208 270.927C196.129 266.072 202.895 261.097 209.926 255.927C211.636 254.669 213.361 253.401 215.094 252.119C223.946 245.573 232.982 238.704 241.049 231.391C257.165 216.783 269.528 200.307 268.732 180.97C267.262 145.265 239.273 110.465 201.766 84.8397C164.242 59.2029 117.05 42.6475 76.9337 43.512C66.5522 43.7357 58.7828 45.6562 52.5629 48.8285C46.3425 52.001 41.7045 56.4089 37.5638 61.5561C34.6423 65.1878 31.9529 69.209 29.1326 73.4261C27.9675 75.1682 26.7801 76.9437 25.5446 78.739C21.3085 84.895 16.4805 91.3285 9.98139 97.5915Z" fill="url(#paint1_linear_3371_42960)" stroke="white"/>
<path opacity="0.1" d="M59.099 279.392C66.0394 285.219 70.6728 290.548 74.3722 295.276C75.5966 296.841 76.725 298.349 77.8043 299.791C79.971 302.687 81.94 305.318 84.0909 307.614C87.3422 311.084 91.0447 313.835 96.5735 315.736C102.086 317.632 109.394 318.676 119.845 318.78C206.284 319.637 276.776 259.948 277.132 185.31C277.173 176.677 275.636 170.037 272.902 164.559C270.168 159.083 266.255 154.803 261.597 150.869C258.041 147.865 254.029 145.048 249.769 142.055C248.462 141.137 247.131 140.202 245.782 139.24C240.028 135.137 233.924 130.522 227.855 124.55C222.139 118.926 216.304 112.528 210.239 105.878C208.765 104.261 207.276 102.63 205.773 100.99C198.093 92.6172 190.026 84.0609 181.391 76.3637C164.126 60.9729 144.535 48.9651 121.132 48.7331C34.6895 47.876 -35.8058 109.056 -36.1545 182.203C-36.2 191.751 -32.0778 201.042 -25.4646 209.974C-18.8507 218.906 -9.71657 227.518 0.330909 235.717C10.3802 243.917 21.3643 251.72 31.6857 259.029L32.4521 259.572C42.4925 266.681 51.8562 273.311 59.099 279.392Z" fill="url(#paint2_linear_3371_42960)" stroke="white"/>
<path opacity="0.1" d="M29.4501 258.084C50.5381 280.589 79.5929 295.153 112.073 296.215C179.229 298.411 235.491 243.457 237.777 173.518C238.042 165.43 237.03 159.184 235.058 154.005C233.086 148.826 230.164 144.743 226.651 140.971C223.971 138.094 220.931 135.383 217.706 132.507C216.717 131.625 215.711 130.727 214.693 129.805C210.343 125.865 205.737 121.442 201.194 115.748C196.914 110.382 192.562 104.288 188.037 97.954C186.937 96.4136 185.826 94.8589 184.704 93.297C178.973 85.3197 172.946 77.1623 166.454 69.8009C153.481 55.0913 138.576 43.4681 120.355 42.8724C53.1949 40.6768 -3.10852 97.0302 -5.34927 165.57C-6.50655 200.968 6.93556 234.056 29.4501 258.084Z" fill="white" stroke="white"/>
<path opacity="0.1" d="M29.4501 258.084C50.5381 280.589 79.5929 295.153 112.073 296.215C179.229 298.411 235.491 243.457 237.777 173.518C238.042 165.43 237.03 159.184 235.058 154.005C233.086 148.826 230.164 144.743 226.651 140.971C223.971 138.094 220.931 135.383 217.706 132.507C216.717 131.625 215.711 130.727 214.693 129.805C210.343 125.865 205.737 121.442 201.194 115.748C196.914 110.382 192.562 104.288 188.037 97.954C186.937 96.4136 185.826 94.8589 184.704 93.297C178.973 85.3197 172.946 77.1623 166.454 69.8009C153.481 55.0913 138.576 43.4681 120.355 42.8724C53.1949 40.6768 -3.10852 97.0302 -5.34927 165.57C-6.50655 200.968 6.93556 234.056 29.4501 258.084Z" fill="url(#paint3_linear_3371_42960)" stroke="white"/>
<path opacity="0.1" d="M132.036 308.526C141.442 309.234 150.257 310.678 158.679 312.058L158.942 312.101C167.436 313.493 175.541 314.812 183.413 315.218C199.19 316.031 214.056 313.177 229.438 299.954C292.782 245.502 298.105 147.869 241.388 81.891C234.832 74.2646 228.661 69.4029 222.514 66.3248C216.366 63.2459 210.27 61.9656 203.886 61.4658C199.014 61.0844 193.954 61.1573 188.58 61.2348C186.931 61.2585 185.252 61.2827 183.54 61.2944C176.235 61.3439 168.284 61.1665 159.319 59.768C150.877 58.4512 141.757 56.5281 132.279 54.5298C129.975 54.0439 127.649 53.5535 125.307 53.0664C113.343 50.5775 100.959 48.1744 88.8203 46.8911C64.5613 44.3265 41.1632 46.2206 24.0021 60.9729C-39.3448 115.428 -43.5298 214.379 12.0516 279.036C26.4751 295.815 46.3559 302.406 67.6569 305.198C78.3078 306.595 89.3308 307.043 100.221 307.335C102.321 307.391 104.415 307.441 106.501 307.492C115.242 307.702 123.834 307.909 132.036 308.526Z" fill="url(#paint4_linear_3371_42960)" stroke="white"/>
<path opacity="0.1" d="M271.697 232.764C286.235 197.282 287.675 156.903 272.079 119.635C239.833 42.5781 148.609 7.38477 68.3481 40.9718C59.0707 44.8541 52.5418 49.2238 47.717 54.1206C42.891 59.0188 39.7917 64.4224 37.3464 70.3401C35.4801 74.8566 33.9879 79.692 32.4031 84.8275C31.9167 86.4037 31.4215 88.0083 30.9042 89.6405C28.6971 96.6037 26.0746 104.112 21.9777 112.208C18.1199 119.831 13.4761 127.913 8.65043 136.311C7.47709 138.353 6.293 140.414 5.10685 142.491C-0.952954 153.104 -7.06061 164.142 -12.0272 175.292C-21.9532 197.575 -27.3723 220.416 -18.6362 241.292C13.6114 318.352 106.441 352.87 185.095 319.955C225.716 302.956 256.174 270.646 271.697 232.764Z" fill="url(#paint5_linear_3371_42960)" stroke="white"/>
<path opacity="0.1" d="M82.7695 62.5954C73.3096 63.6162 65.2682 63.3485 58.1218 62.8586C56.2468 62.7301 54.4294 62.5858 52.662 62.4455C47.7098 62.0523 43.1503 61.6904 38.8164 61.7935C32.9125 61.934 27.3807 62.9355 21.7278 65.8956C16.0811 68.8525 10.3476 73.7458 4.00684 81.6176C-48.3933 146.67 -35.8943 243.645 31.8628 298.224C39.6949 304.533 46.6467 308.193 53.2503 310.103C59.8556 312.014 66.0831 312.166 72.4511 311.498C77.3114 310.988 82.2739 309.997 87.5444 308.945C89.162 308.622 90.8087 308.293 92.4903 307.971C99.6643 306.596 107.515 305.326 116.585 305.073C125.126 304.834 134.444 305.069 144.127 305.312C146.481 305.372 148.857 305.432 151.248 305.485C163.466 305.759 176.081 305.873 188.25 304.93C212.572 303.046 235.236 296.934 249.433 279.31C301.835 214.255 287.977 116.189 221.577 62.7031C204.314 48.7982 179.663 47.7309 154.382 50.6276C141.728 52.0775 128.878 54.526 116.67 56.8821L115.421 57.1233C103.665 59.3933 92.5427 61.5408 82.7695 62.5954Z" fill="url(#paint6_linear_3371_42960)" stroke="white"/>
<path opacity="0.1" d="M27.0067 287.552C52.911 309.469 77.3854 308.426 112.468 306.931C115.48 306.803 118.571 306.671 121.747 306.55C163.421 304.965 203.295 291.763 232.386 269.005C261.486 246.239 279.799 213.905 278.286 174.112C277.936 164.919 276.157 157.924 273.279 152.224C270.4 146.524 266.438 142.148 261.768 138.173C258.204 135.139 254.209 132.325 249.966 129.336C248.664 128.419 247.339 127.486 245.996 126.524C240.264 122.422 234.171 117.791 228.05 111.711C222.286 105.985 216.371 99.4406 210.224 92.6387C208.729 90.9847 207.221 89.3156 205.697 87.6394C197.915 79.0765 189.752 70.3368 181.08 62.5396C163.745 46.9526 144.305 35.0653 121.709 35.9246C79.9217 37.5137 39.4492 64.8031 9.81497 101.345C-19.8208 137.888 -38.7066 183.793 -37.2246 222.764C-36.8408 232.857 -34.4932 240.405 -30.6933 246.438C-26.8959 252.467 -21.6707 256.948 -15.592 260.938C-11.3006 263.756 -6.55692 266.345 -1.57854 269.063C0.47937 270.186 2.57738 271.332 4.70012 272.524C11.9739 276.609 19.581 281.269 27.0067 287.552Z" fill="url(#paint7_linear_3371_42960)" stroke="white"/>
<path opacity="0.1" d="M238.98 238.997C245.705 232.27 251.876 227.771 257.356 224.177C259.172 222.985 260.922 221.888 262.594 220.84C265.948 218.736 268.992 216.827 271.645 214.743C275.651 211.594 278.825 208.007 280.986 202.649C283.142 197.305 284.277 190.234 284.277 180.139C284.277 96.6069 213.71 28.9258 126.705 28.9258C116.648 28.9258 108.938 30.4364 102.597 33.0911C96.2544 35.7465 91.3094 39.5349 86.7692 44.0498C83.304 47.4958 80.0609 51.3803 76.6164 55.506C75.5592 56.7723 74.4831 58.0613 73.3757 59.3673C68.6517 64.9387 63.3341 70.8524 56.4294 76.7393C49.9278 82.2825 42.5241 87.9452 34.8305 93.8294C32.9598 95.2602 31.072 96.704 29.1759 98.1625C19.4889 105.613 9.59372 113.438 0.707916 121.806C-17.0509 138.53 -30.8672 157.508 -30.8672 180.139C-30.8672 263.674 41.4415 331.352 126.705 331.352C148.88 331.352 169.778 315.366 188.666 295.92C198.124 286.183 207.108 275.545 215.522 265.55L216.148 264.807C224.332 255.084 231.964 246.016 238.98 238.997Z" fill="url(#paint8_linear_3371_42960)" stroke="white"/>
<path opacity="0.1" d="M130.707 314.023C137.792 314.742 144.433 316.208 150.78 317.609L150.977 317.652C157.377 319.065 163.487 320.405 169.421 320.817C181.318 321.643 192.538 318.743 204.146 305.299C251.914 249.975 255.906 150.817 213.169 83.8342C208.228 76.0901 203.575 71.1517 198.94 68.0245C194.303 64.8961 189.705 63.5949 184.891 63.0871C181.217 62.6997 177.402 62.7738 173.352 62.8524C172.109 62.8765 170.845 62.9011 169.555 62.9129C164.052 62.9631 158.064 62.783 151.312 61.364C144.952 60.0274 138.081 58.0754 130.939 56.0466C129.203 55.5533 127.45 55.0555 125.685 54.5608C116.669 52.0341 107.336 49.5939 98.1876 48.2908C79.9082 45.6872 62.2541 47.605 49.2995 62.6088C1.52895 117.936 -1.60524 218.432 40.2769 284.074C51.1495 301.114 66.1368 307.809 82.1936 310.645C90.2216 312.063 98.5296 312.518 106.736 312.814C108.318 312.871 109.896 312.922 111.468 312.973C118.055 313.187 124.528 313.397 130.707 314.023Z" fill="url(#paint9_linear_3371_42960)" stroke="white"/>
<path opacity="0.1" d="M236.042 236.969C247 200.939 248.079 159.959 236.336 122.151C212.066 44.012 143.334 8.1624 82.7294 42.3319C75.7183 46.2848 70.7766 50.7388 67.1236 55.734C63.4719 60.7274 61.1321 66.2287 59.2891 72.2377C57.8822 76.8248 56.7574 81.7356 55.5631 86.9496C55.1967 88.5496 54.8237 90.1781 54.434 91.8346C52.7708 98.904 50.7953 106.524 47.71 114.738C44.8039 122.475 41.3057 130.677 37.6696 139.203C36.7853 141.276 35.893 143.369 34.999 145.478C30.4325 156.253 25.829 167.462 22.0855 178.784C14.6002 201.425 10.5272 224.597 17.0999 245.758C41.3713 323.901 111.312 359.065 170.706 325.578C201.372 308.288 224.343 275.438 236.042 236.969Z" fill="url(#paint10_linear_3371_42960)" stroke="white"/>
<path opacity="0.1" d="M93.5752 64.2378C86.4506 65.2735 80.3946 65.0019 75.0115 64.5048C73.6002 64.3745 72.2317 64.2281 70.9005 64.0857C67.1679 63.6865 63.7282 63.3186 60.4596 63.4233C56.0048 63.5661 51.8312 64.5845 47.5681 67.5922C43.3107 70.5959 38.9894 75.5653 34.2113 83.5572C-5.2703 149.594 4.12707 248.086 55.2265 303.542C61.1352 309.955 66.3831 313.678 71.3707 315.622C76.3591 317.567 81.0597 317.72 85.8615 317.041C89.5259 316.523 93.2677 315.517 97.2395 314.449C98.4581 314.121 99.6984 313.787 100.965 313.46C106.37 312.064 112.283 310.776 119.114 310.519C125.548 310.277 132.567 310.515 139.864 310.762C141.638 310.822 143.428 310.883 145.231 310.937C154.437 311.216 163.945 311.331 173.117 310.374C191.451 308.46 208.536 302.252 219.235 284.355C258.719 218.315 248.297 118.717 198.22 64.3705C185.184 50.2234 166.582 49.1478 147.537 52.088C137.999 53.5602 128.315 56.0463 119.117 58.4383L118.176 58.6828C109.317 60.9875 100.938 63.1674 93.5752 64.2378Z" fill="url(#paint11_linear_3371_42960)" stroke="white"/>
<path opacity="0.1" d="M51.4488 292.622C62.0476 304.704 72.3492 309.944 83.8276 311.95C93.4601 313.632 103.92 313.032 116.016 312.339C118.276 312.209 120.593 312.076 122.972 311.954C185.91 308.73 243.329 258.213 241.051 177.503C240.524 158.844 235.684 149.181 228.617 141.076C225.929 137.993 222.915 135.133 219.718 132.098C218.737 131.168 217.739 130.22 216.728 129.245C212.411 125.082 207.822 120.384 203.211 114.213C198.868 108.4 194.411 101.756 189.779 94.8506C188.652 93.1715 187.516 91.477 186.368 89.7753C180.504 81.0824 174.353 72.2092 167.817 64.2922C154.772 48.4884 140.081 36.3485 122.944 37.2264C91.3419 38.8455 60.8116 66.6295 38.4961 103.703C16.1627 140.806 1.94615 187.388 3.06157 226.907C3.35016 237.132 5.11467 244.774 7.97146 250.885C10.8293 256.999 14.7666 261.55 19.3564 265.61C22.5938 268.474 26.1745 271.107 29.9277 273.868C31.4775 275.007 33.0566 276.169 34.6532 277.377C40.1302 281.522 45.8573 286.248 51.4488 292.622Z" fill="url(#paint12_linear_3371_42960)" stroke="white"/>
<path opacity="0.1" d="M211.842 243.355C216.931 236.489 221.599 231.899 225.744 228.233C227.114 227.02 228.437 225.902 229.702 224.832C232.244 222.682 234.556 220.726 236.568 218.594C239.61 215.37 242.007 211.708 243.638 206.255C245.264 200.818 246.123 193.617 246.123 183.318C246.123 98.1773 192.77 28.9258 126.706 28.9258C119.059 28.9258 113.187 30.4757 108.355 33.204C103.527 35.9298 99.7738 39.8124 96.3374 44.4215C93.7134 47.9409 91.2577 51.9079 88.6499 56.1206C87.8496 57.4136 87.035 58.7296 86.1967 60.063C82.6196 65.7529 78.5946 71.7898 73.3698 77.7979C68.4488 83.4565 62.8454 89.2368 57.0208 95.2451C55.6044 96.7061 54.175 98.1807 52.739 99.6703C45.4046 107.279 37.9112 115.27 31.1822 123.817C17.725 140.91 7.28906 160.269 7.28906 183.318C7.28906 225.919 20.9611 264.502 42.7179 292.444C64.4739 320.385 94.3378 337.711 126.706 337.711C135.18 337.711 143.376 333.589 151.215 327.027C159.057 320.464 166.591 311.419 173.75 301.478C180.911 291.536 187.713 280.673 194.083 270.467L194.555 269.71C200.752 259.781 206.531 250.521 211.842 243.355Z" fill="url(#paint13_linear_3371_42960)" stroke="white"/>
<path opacity="0.1" d="M276.931 165.651C272.848 133.106 254.488 102.072 222.185 80.1499C155.4 34.8253 55.4372 44.4715 -1.08636 101.7C-7.62115 108.316 -11.424 114.211 -13.4213 119.828C-15.419 125.446 -15.6002 130.757 -14.9378 136.194C-14.4322 140.343 -13.4315 144.585 -12.369 149.088C-12.043 150.471 -11.7111 151.877 -11.3859 153.314C-9.99829 159.443 -8.72268 166.146 -8.49879 173.878C-8.28792 181.16 -8.56732 189.099 -8.85769 197.35C-8.9283 199.357 -8.99955 201.381 -9.06456 203.42C-9.39667 213.832 -9.56524 224.584 -8.64339 234.969C-6.80083 255.725 -0.594775 275.108 17.4999 287.388C84.2888 332.715 185.379 321.921 240.772 265.838C269.377 236.876 281.291 200.397 276.931 165.651Z" fill="url(#paint14_linear_3371_42960)" stroke="white"/>
<path opacity="0.1" d="M-12.1188 186.981C-12.8866 194.99 -14.4097 202.488 -15.8653 209.654L-15.9106 209.877C-17.3783 217.103 -18.7702 223.999 -19.2203 230.707C-20.1226 244.152 -17.2418 256.863 -3.67418 270.12C52.1794 324.692 152.745 330.216 220.937 282.544C228.82 277.033 233.854 271.821 237.051 266.611C240.249 261.399 241.593 256.213 242.134 250.775C242.547 246.624 242.492 242.309 242.434 237.727C242.416 236.321 242.398 234.89 242.393 233.431C242.372 227.205 242.587 220.43 244.064 212.805C245.454 205.623 247.472 197.869 249.569 189.81C250.079 187.851 250.593 185.874 251.105 183.882C253.717 173.709 256.243 163.176 257.614 152.841C260.354 132.189 258.501 112.212 243.362 97.4198C187.506 42.8452 85.5772 38.278 18.7505 84.9957C1.40575 97.1212 -5.46595 114.004 -8.4294 132.136C-9.9111 141.202 -10.418 150.595 -10.7625 159.875C-10.829 161.664 -10.8894 163.448 -10.9495 165.225C-11.2016 172.675 -11.4494 179.996 -12.1188 186.981Z" fill="url(#paint15_linear_3371_42960)" stroke="white"/>
<path opacity="0.1" d="M-14.2681 194.998C-7.97675 233.143 10.5122 270.418 40.2573 297.964C101.745 354.908 187.256 350.026 231.234 286.924C236.319 279.627 239.106 272.997 240.355 266.575C241.604 260.154 241.308 253.978 240.275 247.608C239.485 242.746 238.261 237.746 236.961 232.436C236.562 230.806 236.156 229.148 235.753 227.455C234.033 220.231 232.362 212.346 231.512 203.331C230.711 194.841 230.278 185.616 229.827 176.028C229.718 173.697 229.607 171.344 229.49 168.975C228.892 156.874 228.124 144.366 226.445 132.218C223.089 107.932 216.083 84.9905 199.431 69.5692C137.94 12.623 51.5527 18.7689 8.45447 80.6096C-13.7992 112.541 -20.9852 154.273 -14.2681 194.998Z" fill="url(#paint16_linear_3371_42960)" stroke="white"/>
</g>
<g opacity="0.7" clip-path="url(#clip1_3371_42960)">
<path opacity="0.1" d="M1403.18 521.468C1428.78 538.837 1415.08 549.024 1418.27 574.862C1421.67 602.449 1440.37 645.857 1417.63 668.882C1373.59 713.472 1293.36 722.156 1240.44 686.243C1211.94 666.9 1220.85 624.994 1220.08 596.098C1219.41 571.345 1205.26 559.823 1225.99 538.829C1270.93 493.328 1350.26 485.555 1403.18 521.468Z" fill="url(#paint17_linear_3371_42960)"/>
<path opacity="0.1" d="M1217.55 604.391C1216.47 578.179 1214.05 561.076 1232.2 543.067C1251.58 523.838 1250.96 502.542 1281.62 501.882C1340.99 500.602 1421.52 552.426 1423.75 606.625C1424.95 635.817 1387.54 656.552 1365.66 675.016C1346.92 690.832 1346.04 706.522 1318.08 707.124C1257.49 708.43 1219.78 658.59 1217.55 604.391Z" fill="url(#paint18_linear_3371_42960)"/>
<path opacity="0.1" d="M1403.27 693.261C1379.9 713.52 1376.19 699.046 1347.37 697.664C1316.6 696.189 1260.79 706.344 1239.47 681.999C1198.18 634.854 1202.35 560.932 1250.68 519.043C1276.7 496.481 1321.05 511.449 1352.8 515.513C1380.01 518.994 1395.03 508.107 1414.47 530.304C1456.61 578.413 1451.59 651.371 1403.27 693.261Z" fill="url(#paint19_linear_3371_42960)"/>
<path opacity="0.1" d="M1328.68 709.409C1297.77 708.399 1270.09 695.061 1249.98 674.471C1228.51 652.486 1215.67 622.234 1216.73 589.889C1218.78 527.251 1272.33 475.847 1336.25 477.937C1370.68 479.062 1392.84 520.165 1413.26 544.717C1430.75 565.749 1449.16 567.965 1448.2 597.457C1446.11 661.376 1392.6 711.499 1328.68 709.409Z" fill="white"/>
<path opacity="0.1" d="M1334.47 710.566C1303.56 709.555 1275.88 696.217 1255.77 675.627C1234.3 653.643 1221.46 623.39 1222.52 591.046C1224.57 528.407 1278.12 477.003 1342.04 479.093C1376.46 480.219 1398.63 521.321 1419.05 545.873C1436.54 566.905 1454.95 569.121 1453.99 598.613C1451.9 662.532 1398.39 712.655 1334.47 710.566Z" fill="url(#paint20_linear_3371_42960)"/>
<path opacity="0.1" d="M1397.69 691.681C1374.24 711.844 1353.02 701.084 1324.29 699.517C1293.6 697.843 1255.49 703.896 1234.39 679.355C1193.54 631.829 1198.22 557.746 1246.72 516.057C1272.84 493.602 1316.96 508.889 1348.61 513.164C1375.72 516.826 1390.78 506.007 1410.02 528.383C1451.71 576.88 1446.19 649.991 1397.69 691.681Z" fill="url(#paint21_linear_3371_42960)"/>
<path opacity="0.1" d="M1313.44 703.205C1282.52 702.257 1254.82 688.975 1234.67 668.425C1213.16 646.484 1200.25 616.257 1201.25 583.91C1203.17 521.268 1256.62 469.757 1320.54 471.718C1354.97 472.775 1377.22 513.833 1397.69 538.344C1415.22 559.34 1433.64 561.52 1432.73 591.013C1430.77 654.936 1377.36 705.167 1313.44 703.205Z" fill="url(#paint22_linear_3371_42960)"/>
<path opacity="0.1" d="M1241.58 516.854C1260.98 492.767 1272.1 505.097 1300.65 501.419C1331.12 497.492 1379.2 479.014 1404.4 499.315C1453.21 538.63 1462.06 612.331 1421.94 662.136C1400.33 688.962 1354.17 681.943 1322.27 683.488C1294.95 684.81 1282.1 698.186 1259.12 679.676C1209.32 639.557 1201.46 566.66 1241.58 516.854Z" fill="url(#paint23_linear_3371_42960)"/>
<path opacity="0.1" d="M1340.35 683.969C1314.13 684.966 1297.05 687.33 1278.73 669.134C1259.17 649.706 1237.87 650.262 1236.7 619.617C1234.45 560.27 1284.99 479.946 1339.19 477.885C1368.39 476.774 1389.76 514.233 1408.59 536.154C1424.73 554.933 1440.45 555.865 1441.51 583.807C1443.81 644.368 1394.55 681.908 1340.35 683.969Z" fill="url(#paint24_linear_3371_42960)"/>
<path opacity="0.1" d="M1437.59 603.847C1437.59 634.777 1424.22 628.028 1404.3 648.798C1383.03 670.974 1354.15 719.645 1321.79 719.645C1259.12 719.645 1205.99 667.8 1205.99 603.847C1205.99 569.401 1246.35 545.905 1270.22 524.694C1290.67 506.523 1292.28 488.049 1321.79 488.049C1385.74 488.049 1437.59 539.893 1437.59 603.847Z" fill="url(#paint25_linear_3371_42960)"/>
<path opacity="0.1" d="M1383.43 701.456C1363.21 724.867 1345.46 713.198 1321.17 712.124C1295.23 710.978 1262.87 718.766 1245.46 691.484C1211.75 638.65 1217.06 554.623 1258.85 506.216C1281.37 480.144 1318.43 496.381 1345.13 500.451C1368 503.936 1380.95 491.313 1396.82 516.188C1431.22 570.102 1425.22 653.05 1383.43 701.456Z" fill="url(#paint26_linear_3371_42960)"/>
<path opacity="0.1" d="M1422.4 546.266C1431.57 575.803 1429.08 608.739 1417.89 638.359C1405.94 669.984 1384.07 697.83 1355.88 713.723C1301.28 744.503 1239.63 721.084 1220.66 660.008C1210.44 627.113 1238.62 584.855 1253.13 552.874C1265.55 525.478 1261.48 507.042 1287.18 492.55C1342.89 461.141 1403.43 485.19 1422.4 546.266Z" fill="url(#paint27_linear_3371_42960)"/>
<path opacity="0.1" d="M1244.65 527.921C1258.07 505.476 1266.67 517.945 1287.5 515.708C1309.75 513.321 1344.43 497.648 1363.64 518.499C1400.85 558.878 1409.9 630.729 1382.15 677.138C1367.2 702.134 1333.05 693.182 1309.68 693.194C1289.65 693.204 1280.68 705.571 1263.16 686.56C1225.19 645.355 1216.91 574.33 1244.65 527.921Z" fill="url(#paint28_linear_3371_42960)"/>
<path opacity="0.1" d="M1350.3 685.906C1324.59 687.223 1307.82 689.802 1290.02 671.761C1271.02 652.498 1250.13 653.314 1249.26 622.571C1247.58 563.035 1297.85 481.807 1351.01 479.084C1379.64 477.617 1400.26 514.954 1418.53 536.727C1434.18 555.38 1449.58 556.126 1450.37 584.157C1452.09 644.91 1403.46 683.182 1350.3 685.906Z" fill="url(#paint29_linear_3371_42960)"/>
<path opacity="0.1" d="M1349.51 700.347C1319.4 707.441 1322.91 692.886 1298.12 678.258C1271.66 662.641 1217.66 645.695 1210.24 614.195C1195.86 553.194 1234.14 489.593 1296.39 474.925C1329.92 467.024 1362.04 500.916 1388.16 519.286C1410.54 535.022 1428.89 532.355 1435.66 561.076C1450.33 623.325 1411.76 685.678 1349.51 700.347Z" fill="url(#paint30_linear_3371_42960)"/>
<path opacity="0.1" d="M1437.59 576.634C1437.59 600.296 1424.22 595.133 1404.3 611.022C1383.03 627.987 1354.15 665.22 1321.79 665.22C1259.12 665.22 1205.99 625.559 1205.99 576.634C1205.99 550.283 1246.35 532.309 1270.22 516.082C1290.67 502.182 1292.28 488.049 1321.79 488.049C1385.74 488.049 1437.59 527.71 1437.59 576.634Z" fill="url(#paint31_linear_3371_42960)"/>
<path opacity="0.1" d="M1397.88 503.633C1419.51 518.312 1431.78 539.119 1434.47 560.956C1437.35 584.271 1429.31 608.76 1410.09 628.22C1372.87 665.905 1305.06 673.244 1260.34 642.892C1236.25 626.545 1243.79 591.127 1243.13 566.706C1242.57 545.787 1230.61 536.049 1248.13 518.306C1286.11 479.85 1353.16 473.281 1397.88 503.633Z" fill="url(#paint32_linear_3371_42960)"/>
<path opacity="0.1" d="M1338.4 715.961C1306.11 721.498 1310.77 706.339 1285.52 689.259C1258.56 671.023 1202.58 649.588 1196.79 615.804C1185.57 550.378 1230.18 485.638 1296.95 474.19C1332.91 468.023 1364.66 505.947 1391.07 527.071C1413.7 545.166 1433.28 543.543 1438.56 574.347C1450.01 641.11 1405.17 704.513 1338.4 715.961Z" fill="url(#paint33_linear_3371_42960)"/>
<path opacity="0.1" d="M1416.14 670.67C1438.26 649.054 1426.73 630.116 1425.26 604.186C1423.69 576.5 1430.58 541.938 1404.06 523.396C1352.69 487.487 1272.07 493.28 1226.33 537.974C1201.69 562.047 1217.96 601.59 1222.35 630.091C1226.11 654.506 1214.22 668.342 1238.41 685.248C1290.82 721.891 1370.39 715.364 1416.14 670.67Z" fill="url(#paint34_linear_3371_42960)"/>
<path opacity="0.1" d="M1355.48 510.432C1375.25 529.71 1386.67 556.103 1389.47 583.284C1392.45 612.306 1385.61 642.227 1368.59 665.351C1335.62 710.133 1274.55 715.779 1233.68 675.917C1211.67 654.447 1217.88 610.966 1216.87 580.687C1216.02 554.75 1205.06 542.082 1220.58 520.998C1254.21 475.3 1314.61 470.57 1355.48 510.432Z" fill="url(#paint35_linear_3371_42960)"/>
<path opacity="0.5" d="M1415.17 588.757C1414.05 582.064 1414.82 575.639 1416.3 569.414C1417.23 565.49 1418.43 561.692 1419.61 557.954C1420.31 555.729 1421.01 553.526 1421.64 551.331C1423.31 545.496 1424.48 539.783 1423.86 534.197C1423.23 528.581 1420.81 523.155 1415.4 517.882C1393.26 496.284 1356.96 484.288 1322.32 482.998C1304.99 482.354 1288.04 484.387 1273.46 489.255C1258.88 494.121 1246.63 501.833 1238.72 512.575C1231.44 522.472 1223.94 541.46 1218.59 561.156C1213.23 580.849 1209.97 601.388 1211.24 614.411C1211.98 622.031 1214.04 627.785 1217.11 632.483C1220.17 637.174 1224.22 640.782 1228.88 644.146C1231.73 646.196 1234.82 648.173 1238.08 650.251C1240.15 651.569 1242.28 652.928 1244.44 654.372C1250.05 658.103 1255.96 662.433 1261.86 668.19C1306.07 711.312 1368.12 710.884 1399.01 668.91C1414.96 647.239 1420.06 617.943 1415.17 588.757Z" stroke="#F9A788"/>
<path opacity="0.5" d="M1406.99 535.957C1400.98 531.613 1396.78 526.175 1393.33 520.409C1391.16 516.774 1389.31 513.051 1387.49 509.387C1386.4 507.206 1385.33 505.045 1384.21 502.937C1381.21 497.331 1377.89 492.169 1373.16 488.337C1368.4 484.492 1362.28 482.028 1353.74 481.724C1318.7 480.477 1278.89 496.28 1248.55 519.129C1233.38 530.557 1220.55 543.764 1211.86 557.512C1203.18 571.254 1198.61 585.575 1200.02 599.224C1201.31 611.798 1209.3 631.45 1219.63 650.167C1229.96 668.886 1242.7 686.801 1253.6 695.866C1259.97 701.168 1266.05 704.131 1272.18 705.6C1278.3 707.067 1284.44 707.038 1290.93 706.398C1294.91 706.004 1299.03 705.382 1303.35 704.727C1313.15 703.245 1324.04 701.597 1337.05 702.061C1372.06 703.307 1402.6 693.182 1423.72 676.089C1444.84 658.997 1456.55 634.915 1453.8 608.257C1450.96 580.727 1433.15 554.862 1406.99 535.957Z" stroke="#FFD19C"/>
<path opacity="0.1" d="M1390 677.085C1400.78 669.758 1410.78 670.966 1419.61 672.033C1420.73 672.169 1421.83 672.301 1422.91 672.414C1427.68 672.913 1432.13 673.028 1436.03 671.036C1439.95 669.029 1443.16 664.964 1445.63 657.429C1455.83 626.357 1449.26 586.136 1432.9 552.399C1424.72 535.521 1414.07 520.241 1401.81 508.516C1389.55 496.795 1375.66 488.606 1360.98 485.957C1354.16 484.726 1345.9 485.571 1337 487.725C1328.09 489.881 1318.51 493.357 1309.01 497.423C1290.03 505.555 1271.37 516.069 1259.17 523.175C1244.92 531.474 1237.36 537.149 1232.02 544.972C1226.96 552.38 1223.91 561.687 1218.94 576.874C1218.68 577.655 1218.42 578.452 1218.15 579.265C1197.8 641.316 1229.85 700.454 1287.24 710.809C1302.12 713.493 1321.21 709.532 1339.85 702.69C1358.49 695.844 1376.75 686.084 1390 677.085Z" stroke="#F9CDD6"/>
</g>
</g>
<defs>
<linearGradient id="paint0_linear_3371_42960" x1="-0.672635" y1="101.981" x2="203.118" y2="303.261" gradientUnits="userSpaceOnUse">
<stop stop-color="#FFE0CC"/>
<stop offset="1" stop-color="#F3F3FD" stop-opacity="0"/>
</linearGradient>
<linearGradient id="paint1_linear_3371_42960" x1="134.806" y1="312.405" x2="128.998" y2="42.89" gradientUnits="userSpaceOnUse">
<stop stop-color="#D68262"/>
<stop offset="1" stop-color="#F9A788"/>
</linearGradient>
<linearGradient id="paint2_linear_3371_42960" x1="276.632" y1="185.305" x2="-35.6621" y2="183.816" gradientUnits="userSpaceOnUse">
<stop stop-color="#FFBB36"/>
<stop offset="1" stop-color="#D8F7F9"/>
</linearGradient>
<linearGradient id="paint3_linear_3371_42960" x1="237.277" y1="173.502" x2="-4.84954" y2="165.586" gradientUnits="userSpaceOnUse">
<stop stop-color="#FEA972"/>
<stop offset="1" stop-color="#E1F1FE" stop-opacity="0"/>
</linearGradient>
<linearGradient id="paint4_linear_3371_42960" x1="241.009" y1="82.217" x2="12.4308" y2="278.71" gradientUnits="userSpaceOnUse">
<stop stop-color="#E29578"/>
<stop offset="1" stop-color="#E8C5B1"/>
</linearGradient>
<linearGradient id="paint5_linear_3371_42960" x1="68.5411" y1="41.433" x2="184.902" y2="319.494" gradientUnits="userSpaceOnUse">
<stop stop-color="#FEA972"/>
<stop offset="1" stop-color="#F3DAFA" stop-opacity="0"/>
</linearGradient>
<linearGradient id="paint6_linear_3371_42960" x1="32.1765" y1="297.835" x2="221.263" y2="63.0925" gradientUnits="userSpaceOnUse">
<stop stop-color="#FFE0CC"/>
<stop offset="1" stop-color="#F3F3FD" stop-opacity="0"/>
</linearGradient>
<linearGradient id="paint7_linear_3371_42960" x1="277.452" y1="165.342" x2="-38.451" y2="177.355" gradientUnits="userSpaceOnUse">
<stop stop-color="#D68262"/>
<stop offset="1" stop-color="#F9A788"/>
</linearGradient>
<linearGradient id="paint8_linear_3371_42960" x1="126.705" y1="29.4258" x2="126.705" y2="330.852" gradientUnits="userSpaceOnUse">
<stop stop-color="#FFE8CC"/>
<stop offset="1" stop-color="#D8F7F9" stop-opacity="0"/>
</linearGradient>
<linearGradient id="paint9_linear_3371_42960" x1="212.842" y1="84.2127" x2="-0.0192841" y2="220.027" gradientUnits="userSpaceOnUse">
<stop stop-color="#E29578"/>
<stop offset="1" stop-color="#E8C5B1"/>
</linearGradient>
<linearGradient id="paint10_linear_3371_42960" x1="82.8777" y1="42.8094" x2="224.795" y2="294.521" gradientUnits="userSpaceOnUse">
<stop stop-color="#FEA972"/>
<stop offset="1" stop-color="#F3DAFA" stop-opacity="0"/>
</linearGradient>
<linearGradient id="paint11_linear_3371_42960" x1="55.4831" y1="303.113" x2="251.298" y2="122.681" gradientUnits="userSpaceOnUse">
<stop stop-color="#FFE0CC"/>
<stop offset="1" stop-color="#F3F3FD" stop-opacity="0"/>
</linearGradient>
<linearGradient id="paint12_linear_3371_42960" x1="240.3" y1="168.605" x2="2.10585" y2="175.328" gradientUnits="userSpaceOnUse">
<stop stop-color="#D68262"/>
<stop offset="1" stop-color="#F9A788"/>
</linearGradient>
<linearGradient id="paint13_linear_3371_42960" x1="126.706" y1="29.4258" x2="126.706" y2="337.211" gradientUnits="userSpaceOnUse">
<stop stop-color="#FFE8CC"/>
<stop offset="1" stop-color="#D8F7F9" stop-opacity="0"/>
</linearGradient>
<linearGradient id="paint14_linear_3371_42960" x1="-0.672635" y1="101.981" x2="203.118" y2="303.261" gradientUnits="userSpaceOnUse">
<stop stop-color="#FEA972"/>
<stop offset="1" stop-color="#E1F1FE" stop-opacity="0"/>
</linearGradient>
<linearGradient id="paint15_linear_3371_42960" x1="220.579" y1="282.194" x2="62.0016" y2="55.3589" gradientUnits="userSpaceOnUse">
<stop stop-color="#E29578"/>
<stop offset="1" stop-color="#E8C5B1"/>
</linearGradient>
<linearGradient id="paint16_linear_3371_42960" x1="230.867" y1="286.584" x2="-15.0487" y2="115.2" gradientUnits="userSpaceOnUse">
<stop stop-color="#FEA972"/>
<stop offset="1" stop-color="#F3DAFA" stop-opacity="0"/>
</linearGradient>
<linearGradient id="paint17_linear_3371_42960" x1="1225.99" y1="538.829" x2="1388.02" y2="698.859" gradientUnits="userSpaceOnUse">
<stop stop-color="#FFC39C"/>
<stop offset="0.546875" stop-color="#F3F3FD" stop-opacity="0.0989583"/>
<stop offset="1" stop-color="#F3F3FD" stop-opacity="0"/>
</linearGradient>
<linearGradient id="paint18_linear_3371_42960" x1="1324.81" y1="706.979" x2="1320.37" y2="501.047" gradientUnits="userSpaceOnUse">
<stop stop-color="#ED8081"/>
<stop offset="0.411458" stop-color="#D1BBFD" stop-opacity="0.109375"/>
<stop offset="1" stop-color="#D1BBFD" stop-opacity="0"/>
</linearGradient>
<linearGradient id="paint19_linear_3371_42960" x1="1414.47" y1="530.304" x2="1240.26" y2="682.896" gradientUnits="userSpaceOnUse">
<stop stop-color="#FFC199"/>
<stop offset="0.723958" stop-color="#D8F7F9" stop-opacity="0.0885417"/>
<stop offset="1" stop-color="#D8F7F9"/>
</linearGradient>
<linearGradient id="paint20_linear_3371_42960" x1="1453.99" y1="598.613" x2="1222.52" y2="591.046" gradientUnits="userSpaceOnUse">
<stop stop-color="#F3A6AA"/>
<stop offset="0.421875" stop-color="#E1F1FE" stop-opacity="0.0989583"/>
<stop offset="1" stop-color="#E1F1FE" stop-opacity="0"/>
</linearGradient>
<linearGradient id="paint21_linear_3371_42960" x1="1410.02" y1="528.383" x2="1234.39" y2="679.355" gradientUnits="userSpaceOnUse">
<stop stop-color="#FFC700"/>
<stop offset="0.510417" stop-color="#C5C8FD" stop-opacity="0.0989583"/>
<stop offset="1" stop-color="#C2C5FD" stop-opacity="0"/>
</linearGradient>
<linearGradient id="paint22_linear_3371_42960" x1="1432.73" y1="591.013" x2="1201.25" y2="583.91" gradientUnits="userSpaceOnUse">
<stop stop-color="#FFC8A4"/>
<stop offset="0.307292" stop-color="#F3DAFA" stop-opacity="0.0885417"/>
<stop offset="1" stop-color="#F3DAFA" stop-opacity="0"/>
</linearGradient>
<linearGradient id="paint23_linear_3371_42960" x1="1259.12" y1="679.676" x2="1404.4" y2="499.315" gradientUnits="userSpaceOnUse">
<stop stop-color="#FFC39C"/>
<stop offset="0.546875" stop-color="#F3F3FD" stop-opacity="0.0989583"/>
<stop offset="1" stop-color="#F3F3FD" stop-opacity="0"/>
</linearGradient>
<linearGradient id="paint24_linear_3371_42960" x1="1441.25" y1="577.088" x2="1235.38" y2="584.917" gradientUnits="userSpaceOnUse">
<stop stop-color="#ED8081"/>
<stop offset="0.411458" stop-color="#D1BBFD" stop-opacity="0.109375"/>
<stop offset="1" stop-color="#D1BBFD" stop-opacity="0"/>
</linearGradient>
<linearGradient id="paint25_linear_3371_42960" x1="1321.79" y1="488.049" x2="1321.79" y2="719.645" gradientUnits="userSpaceOnUse">
<stop stop-color="#FEA972"/>
<stop offset="0.453125" stop-color="#D8F7F9" stop-opacity="0.0885417"/>
<stop offset="1" stop-color="#D8F7F9" stop-opacity="0"/>
</linearGradient>
<linearGradient id="paint26_linear_3371_42960" x1="1396.82" y1="516.188" x2="1209.76" y2="635.535" gradientUnits="userSpaceOnUse">
<stop stop-color="#FFC700"/>
<stop offset="0.510417" stop-color="#C5C8FD" stop-opacity="0.0989583"/>
<stop offset="1" stop-color="#C2C5FD" stop-opacity="0"/>
</linearGradient>
<linearGradient id="paint27_linear_3371_42960" x1="1287.18" y1="492.55" x2="1398.37" y2="689.765" gradientUnits="userSpaceOnUse">
<stop stop-color="#FFC8A4"/>
<stop offset="0.307292" stop-color="#F3DAFA" stop-opacity="0.0885417"/>
<stop offset="1" stop-color="#F3DAFA" stop-opacity="0"/>
</linearGradient>
<linearGradient id="paint28_linear_3371_42960" x1="1263.16" y1="686.56" x2="1401.25" y2="559.317" gradientUnits="userSpaceOnUse">
<stop stop-color="#FFC39C"/>
<stop offset="0.546875" stop-color="#F3F3FD" stop-opacity="0.0989583"/>
<stop offset="1" stop-color="#F3F3FD" stop-opacity="0"/>
</linearGradient>
<linearGradient id="paint29_linear_3371_42960" x1="1450.18" y1="577.416" x2="1248.15" y2="583.118" gradientUnits="userSpaceOnUse">
<stop stop-color="#ED8081"/>
<stop offset="0.411458" stop-color="#D1BBFD" stop-opacity="0.109375"/>
<stop offset="1" stop-color="#D1BBFD" stop-opacity="0"/>
</linearGradient>
<linearGradient id="paint30_linear_3371_42960" x1="1435.66" y1="561.076" x2="1210.24" y2="614.195" gradientUnits="userSpaceOnUse">
<stop stop-color="#FEA972"/>
<stop offset="0.453125" stop-color="#D8F7F9" stop-opacity="0.0885417"/>
<stop offset="1" stop-color="#D8F7F9" stop-opacity="0"/>
</linearGradient>
<linearGradient id="paint31_linear_3371_42960" x1="1321.79" y1="488.049" x2="1321.79" y2="665.22" gradientUnits="userSpaceOnUse">
<stop stop-color="#FEA972"/>
<stop offset="0.453125" stop-color="#D8F7F9" stop-opacity="0.0885417"/>
<stop offset="1" stop-color="#D8F7F9" stop-opacity="0"/>
</linearGradient>
<linearGradient id="paint32_linear_3371_42960" x1="1248.13" y1="518.306" x2="1385.07" y2="653.555" gradientUnits="userSpaceOnUse">
<stop stop-color="#F3A6AA"/>
<stop offset="0.421875" stop-color="#E1F1FE" stop-opacity="0.0989583"/>
<stop offset="1" stop-color="#E1F1FE" stop-opacity="0"/>
</linearGradient>
<linearGradient id="paint33_linear_3371_42960" x1="1438.56" y1="574.347" x2="1196.79" y2="615.804" gradientUnits="userSpaceOnUse">
<stop stop-color="#FEA972"/>
<stop offset="0.453125" stop-color="#D8F7F9" stop-opacity="0.0885417"/>
<stop offset="1" stop-color="#D8F7F9" stop-opacity="0"/>
</linearGradient>
<linearGradient id="paint34_linear_3371_42960" x1="1238.41" y1="685.248" x2="1368.79" y2="498.741" gradientUnits="userSpaceOnUse">
<stop stop-color="#FFC700"/>
<stop offset="0.510417" stop-color="#C5C8FD" stop-opacity="0.0989583"/>
<stop offset="1" stop-color="#C2C5FD" stop-opacity="0"/>
</linearGradient>
<linearGradient id="paint35_linear_3371_42960" x1="1220.58" y1="520.998" x2="1385.49" y2="642.382" gradientUnits="userSpaceOnUse">
<stop stop-color="#FFC8A4"/>
<stop offset="0.307292" stop-color="#F3DAFA" stop-opacity="0.0885417"/>
<stop offset="1" stop-color="#F3DAFA" stop-opacity="0"/>
</linearGradient>
<clipPath id="clip0_3371_42960">
<rect width="1512" height="710" fill="white" transform="translate(0 0.105469)"/>
</clipPath>
<clipPath id="clip1_3371_42960">
<rect width="355" height="304" fill="white" transform="translate(1143.5 416.105)"/>
</clipPath>
</defs>
</svg>
