<svg width="1512" height="822" viewBox="0 0 1512 822" fill="none" xmlns="http://www.w3.org/2000/svg">
<g clip-path="url(#clip0_3432_23676)">
<rect width="1512" height="821" transform="translate(0 0.785156)" fill="#FEF3EA"/>
<g opacity="0.3">
<path opacity="0.1" d="M1496.74 682.744C1495.94 676.405 1496.19 671.025 1496.6 666.244C1496.71 664.992 1496.84 663.777 1496.96 662.595C1497.29 659.277 1497.6 656.214 1497.53 653.302C1497.43 649.33 1496.64 645.598 1494.25 641.769C1491.86 637.946 1487.9 634.054 1481.54 629.737C1428.98 594.067 1350.31 601.658 1305.83 646.697C1300.68 651.907 1297.68 656.554 1296.11 660.986C1294.53 665.419 1294.39 669.609 1294.91 673.892C1295.31 677.159 1296.1 680.5 1296.93 684.042C1297.19 685.128 1297.45 686.233 1297.71 687.36C1298.8 692.177 1299.8 697.442 1299.97 703.514C1300.14 709.236 1299.92 715.475 1299.69 721.963C1299.64 723.54 1299.58 725.133 1299.53 726.736C1299.27 734.923 1299.13 743.382 1299.86 751.552C1301.31 767.879 1306.19 783.153 1320.46 792.833C1373.02 828.505 1452.58 820.011 1496.17 775.873C1507.53 764.366 1508.47 747.802 1506.2 730.835C1505.07 722.338 1503.12 713.702 1501.26 705.501L1501.06 704.665C1499.26 696.765 1497.56 689.298 1496.74 682.744Z" fill="url(#paint0_linear_3432_23676)" stroke="white"/>
<path opacity="0.1" d="M1314.54 643.449C1304.85 652.793 1300.62 661.925 1298.97 672.12C1297.59 680.675 1298.02 689.984 1298.52 700.748C1298.62 702.759 1298.71 704.821 1298.8 706.938C1301.11 762.92 1341.16 814.47 1405.66 813.08C1413.11 812.919 1418.78 811.783 1423.42 809.897C1428.05 808.01 1431.62 805.384 1434.86 802.277C1437.33 799.907 1439.63 797.246 1442.07 794.425C1442.81 793.561 1443.57 792.681 1444.35 791.791C1447.69 787.985 1451.46 783.944 1456.39 779.897C1461.05 776.081 1466.36 772.172 1471.89 768.107C1473.24 767.118 1474.59 766.12 1475.96 765.112C1482.92 759.965 1490.02 754.561 1496.37 748.808C1509.05 737.318 1518.8 724.336 1518.17 709.082C1517.01 680.957 1494.97 653.568 1465.47 633.412C1435.95 613.245 1398.82 600.219 1367.26 600.899C1359.08 601.075 1352.96 602.588 1348.05 605.091C1343.14 607.594 1339.48 611.071 1336.22 615.125C1333.92 617.985 1331.8 621.152 1329.58 624.47C1328.67 625.839 1327.74 627.233 1326.77 628.642C1323.44 633.479 1319.65 638.531 1314.54 643.449Z" fill="url(#paint1_linear_3432_23676)" stroke="white"/>
<path opacity="0.1" d="M1353.17 786.551C1358.62 791.126 1362.26 795.31 1365.16 799.023C1366.12 800.249 1367.01 801.432 1367.86 802.565C1369.56 804.845 1371.12 806.922 1372.81 808.732C1375.38 811.471 1378.3 813.644 1382.67 815.146C1387.02 816.642 1392.78 817.463 1401 817.545C1469.01 818.219 1524.5 771.255 1524.78 712.496C1524.81 705.695 1523.6 700.457 1521.44 696.133C1519.28 691.81 1516.19 688.433 1512.52 685.334C1509.72 682.969 1506.56 680.75 1503.21 678.397C1502.19 677.675 1501.14 676.941 1500.08 676.186C1495.56 672.961 1490.77 669.336 1486 664.646C1481.51 660.226 1476.92 655.199 1472.15 649.971C1470.99 648.699 1469.82 647.416 1468.64 646.126C1462.6 639.542 1456.26 632.811 1449.46 626.756C1435.88 614.648 1420.45 605.186 1402.01 605.003C1334 604.329 1278.51 652.466 1278.24 710.052C1278.2 717.591 1281.46 724.918 1286.66 731.951C1291.87 738.985 1299.06 745.762 1306.96 752.211C1314.87 758.661 1323.51 764.799 1331.62 770.546L1332.22 770.971C1340.12 776.562 1347.48 781.773 1353.17 786.551Z" fill="url(#paint2_linear_3432_23676)" stroke="white"/>
<path opacity="0.1" d="M1329.85 769.788C1346.45 787.503 1369.32 798.968 1394.89 799.804C1447.75 801.532 1492.04 758.273 1493.83 703.228C1494.04 696.858 1493.25 691.932 1491.69 687.845C1490.13 683.756 1487.83 680.534 1485.06 677.562C1482.95 675.295 1480.55 673.159 1478.02 670.897C1477.24 670.204 1476.45 669.499 1475.65 668.775C1472.23 665.679 1468.61 662.206 1465.05 657.735C1461.68 653.519 1458.26 648.731 1454.71 643.75C1453.84 642.539 1452.97 641.316 1452.09 640.088C1447.58 633.815 1442.84 627.397 1437.73 621.605C1427.52 610.034 1415.78 600.866 1401.41 600.396C1348.54 598.668 1304.22 643.028 1302.46 696.972C1301.55 724.833 1312.13 750.876 1329.85 769.788Z" fill="white" stroke="white"/>
<path opacity="0.1" d="M1329.85 769.788C1346.45 787.503 1369.32 798.968 1394.89 799.804C1447.75 801.532 1492.04 758.273 1493.83 703.228C1494.04 696.858 1493.25 691.932 1491.69 687.845C1490.13 683.756 1487.83 680.534 1485.06 677.562C1482.95 675.295 1480.55 673.159 1478.02 670.897C1477.24 670.204 1476.45 669.499 1475.65 668.775C1472.23 665.679 1468.61 662.206 1465.05 657.735C1461.68 653.519 1458.26 648.731 1454.71 643.75C1453.84 642.539 1452.97 641.316 1452.09 640.088C1447.58 633.815 1442.84 627.397 1437.73 621.605C1427.52 610.034 1415.78 600.866 1401.41 600.396C1348.54 598.668 1304.22 643.028 1302.46 696.972C1301.55 724.833 1312.13 750.876 1329.85 769.788Z" fill="url(#paint3_linear_3432_23676)" stroke="white"/>
<path opacity="0.1" d="M1410.58 809.483C1417.97 810.04 1424.9 811.174 1431.52 812.259L1431.73 812.293C1438.4 813.387 1444.78 814.425 1450.98 814.745C1463.4 815.385 1475.12 813.136 1487.24 802.718C1537.09 759.863 1541.28 683.03 1496.65 631.112C1491.49 625.108 1486.62 621.275 1481.77 618.847C1476.92 616.418 1472.12 615.409 1467.09 615.016C1463.25 614.715 1459.27 614.773 1455.04 614.834C1453.74 614.852 1452.43 614.871 1451.08 614.881C1445.34 614.919 1439.1 614.78 1432.06 613.682C1425.42 612.647 1418.25 611.136 1410.8 609.564C1408.99 609.182 1407.16 608.797 1405.32 608.413C1395.91 606.456 1386.17 604.566 1376.62 603.556C1357.54 601.539 1339.1 603.025 1325.57 614.654C1275.72 657.511 1272.43 735.381 1316.17 786.259C1327.53 799.48 1343.19 804.669 1359.95 806.866C1368.33 807.965 1377.01 808.317 1385.57 808.547C1387.22 808.591 1388.87 808.63 1390.51 808.67C1397.38 808.835 1404.13 808.998 1410.58 809.483Z" fill="url(#paint4_linear_3432_23676)" stroke="white"/>
<path opacity="0.1" d="M1520.49 749.848C1531.93 721.927 1533.07 690.148 1520.79 660.818C1495.42 600.172 1423.62 572.481 1360.47 598.91C1353.16 601.967 1348.02 605.41 1344.21 609.272C1340.4 613.136 1337.96 617.398 1336.04 622.059C1334.57 625.615 1333.39 629.424 1332.14 633.463C1331.76 634.701 1331.37 635.962 1330.97 637.243C1329.23 642.716 1327.17 648.613 1323.95 654.971C1320.92 660.962 1317.27 667.313 1313.48 673.916C1312.56 675.522 1311.63 677.143 1310.69 678.777C1305.93 687.122 1301.12 695.804 1297.22 704.576C1289.41 722.104 1285.13 740.098 1292.02 756.554C1317.4 817.203 1390.45 844.362 1452.34 818.462C1484.31 805.085 1508.28 779.659 1520.49 749.848Z" fill="url(#paint5_linear_3432_23676)" stroke="white"/>
<path opacity="0.1" d="M1371.84 615.905C1364.41 616.706 1358.09 616.496 1352.48 616.111C1351.01 616.011 1349.58 615.897 1348.19 615.787C1344.3 615.478 1340.7 615.193 1337.29 615.274C1332.64 615.384 1328.27 616.174 1323.81 618.511C1319.35 620.845 1314.83 624.704 1309.84 630.9C1268.6 682.098 1278.44 758.413 1331.76 801.36C1337.92 806.328 1343.4 809.213 1348.61 810.72C1353.82 812.227 1358.73 812.346 1363.75 811.82C1367.58 811.419 1371.48 810.638 1375.63 809.811C1376.9 809.557 1378.19 809.299 1379.51 809.046C1385.15 807.965 1391.32 806.968 1398.44 806.769C1405.15 806.581 1412.48 806.766 1420.09 806.957C1421.94 807.004 1423.81 807.051 1425.69 807.093C1435.3 807.309 1445.22 807.398 1454.79 806.657C1473.93 805.174 1491.78 800.365 1502.98 786.472C1544.22 735.272 1533.31 658.101 1481.06 616.013C1467.45 605.05 1448.03 604.217 1428.15 606.495C1418.19 607.636 1408.08 609.562 1398.49 611.414L1397.51 611.603C1388.26 613.388 1379.52 615.076 1371.84 615.905Z" fill="url(#paint6_linear_3432_23676)" stroke="white"/>
<path opacity="0.1" d="M1327.94 792.966C1348.34 810.227 1367.62 809.405 1395.2 808.229C1397.57 808.128 1400 808.024 1402.5 807.929C1435.28 806.683 1466.66 796.296 1489.55 778.386C1512.46 760.469 1526.87 735.014 1525.68 703.687C1525.41 696.447 1524.01 690.932 1521.73 686.434C1519.46 681.935 1516.34 678.484 1512.66 675.353C1509.85 672.964 1506.7 670.747 1503.37 668.397C1502.34 667.676 1501.3 666.943 1500.25 666.188C1495.74 662.964 1490.96 659.327 1486.15 654.552C1481.62 650.052 1476.97 644.909 1472.14 639.561C1470.97 638.261 1469.78 636.948 1468.58 635.629C1462.46 628.896 1456.04 622.021 1449.22 615.887C1435.58 603.625 1420.27 594.256 1402.46 594.933C1369.56 596.184 1337.71 617.666 1314.4 646.41C1291.09 675.156 1276.23 711.274 1277.39 741.949C1277.7 749.899 1279.55 755.853 1282.55 760.616C1285.54 765.374 1289.67 768.907 1294.45 772.049C1297.83 774.267 1301.57 776.306 1305.48 778.444C1307.1 779.327 1308.75 780.226 1310.41 781.162C1316.13 784.373 1322.1 788.033 1327.94 792.966Z" fill="url(#paint7_linear_3432_23676)" stroke="white"/>
<path opacity="0.1" d="M1494.75 754.783C1500.03 749.501 1504.87 745.968 1509.18 743.144C1510.6 742.211 1511.98 741.35 1513.29 740.526C1515.93 738.87 1518.33 737.364 1520.42 735.722C1523.58 733.237 1526.09 730.403 1527.8 726.168C1529.5 721.949 1530.39 716.374 1530.39 708.43C1530.39 642.689 1474.86 589.43 1406.39 589.43C1398.48 589.43 1392.4 590.619 1387.4 592.713C1382.39 594.808 1378.5 597.796 1374.92 601.352C1372.19 604.065 1369.64 607.125 1366.93 610.37C1366.1 611.365 1365.25 612.377 1364.38 613.402C1360.67 617.781 1356.49 622.426 1351.07 627.049C1345.96 631.406 1340.14 635.856 1334.09 640.482C1332.62 641.607 1331.14 642.743 1329.65 643.89C1322.03 649.749 1314.25 655.903 1307.25 662.487C1293.29 675.642 1282.39 690.59 1282.39 708.43C1282.39 774.174 1339.3 827.43 1406.39 827.43C1423.88 827.43 1440.34 814.828 1455.19 799.538C1462.63 791.879 1469.69 783.513 1476.31 775.654L1476.8 775.072C1483.24 767.425 1489.23 760.299 1494.75 754.783Z" fill="url(#paint8_linear_3432_23676)" stroke="white"/>
<path opacity="0.1" d="M1409.53 813.82C1415.1 814.385 1420.32 815.536 1425.31 816.638L1425.46 816.672C1430.49 817.782 1435.3 818.837 1439.97 819.161C1449.34 819.812 1458.19 817.526 1467.34 806.929C1504.94 763.379 1508.08 685.337 1474.45 632.629C1470.56 626.531 1466.89 622.638 1463.23 620.171C1459.58 617.702 1455.95 616.677 1452.15 616.276C1449.26 615.971 1446.26 616.03 1443.07 616.092C1442.09 616.111 1441.1 616.13 1440.09 616.139C1435.76 616.179 1431.06 616.037 1425.76 614.923C1420.76 613.872 1415.36 612.338 1409.75 610.743C1408.38 610.355 1407 609.964 1405.61 609.575C1398.53 607.588 1391.18 605.668 1383.99 604.643C1369.61 602.595 1355.69 604.098 1345.48 615.931C1307.87 659.484 1305.41 738.578 1338.37 790.231C1346.94 803.661 1358.75 808.931 1371.38 811.163C1377.7 812.278 1384.23 812.636 1390.69 812.869C1391.93 812.914 1393.17 812.954 1394.41 812.994C1399.59 813.162 1404.67 813.327 1409.53 813.82Z" fill="url(#paint9_linear_3432_23676)" stroke="white"/>
<path opacity="0.1" d="M1492.46 753.137C1501.08 724.781 1501.93 692.534 1492.69 662.784C1473.59 601.306 1419.5 573.072 1371.79 599.975C1366.26 603.09 1362.36 606.603 1359.48 610.548C1356.59 614.492 1354.75 618.833 1353.3 623.567C1352.19 627.179 1351.3 631.048 1350.36 635.148C1350.08 636.406 1349.78 637.685 1349.48 638.985C1348.17 644.541 1346.62 650.525 1344.2 656.975C1341.91 663.055 1339.16 669.501 1336.3 676.204C1335.61 677.834 1334.91 679.48 1334.2 681.14C1330.61 689.612 1326.99 698.429 1324.05 707.338C1318.16 725.15 1314.95 743.402 1320.12 760.076C1339.22 821.558 1394.26 849.251 1441.02 822.885C1465.17 809.273 1483.25 783.412 1492.46 753.137Z" fill="url(#paint10_linear_3432_23676)" stroke="white"/>
<path opacity="0.1" d="M1380.33 617.182C1374.74 617.995 1369.98 617.782 1365.75 617.391C1364.64 617.289 1363.57 617.174 1362.52 617.062C1359.59 616.748 1356.88 616.458 1354.3 616.541C1350.79 616.653 1347.49 617.457 1344.13 619.832C1340.76 622.203 1337.36 626.122 1333.6 632.413C1302.53 684.385 1309.92 761.902 1350.14 805.55C1354.79 810.6 1358.93 813.537 1362.87 815.072C1366.8 816.606 1370.51 816.727 1374.3 816.192C1377.18 815.784 1380.13 814.991 1383.25 814.151C1384.21 813.893 1385.18 813.631 1386.18 813.375C1390.43 812.277 1395.07 811.266 1400.43 811.064C1405.49 810.874 1411.01 811.061 1416.74 811.255C1418.14 811.303 1419.55 811.35 1420.96 811.393C1428.2 811.612 1435.68 811.703 1442.9 810.95C1457.32 809.444 1470.78 804.559 1479.22 790.451C1510.29 738.476 1502.09 660.089 1462.68 617.314C1452.4 606.155 1437.73 605.317 1422.76 607.629C1415.25 608.787 1407.64 610.743 1400.4 612.623L1399.67 612.815C1392.7 614.628 1386.12 616.341 1380.33 617.182Z" fill="url(#paint11_linear_3432_23676)" stroke="white"/>
<path opacity="0.1" d="M1347.14 796.943C1355.49 806.459 1363.61 810.592 1372.66 812.173C1380.25 813.499 1388.49 813.026 1398 812.48C1399.77 812.378 1401.59 812.274 1403.46 812.178C1453 809.64 1498.2 769.873 1496.41 706.352C1495.99 691.658 1492.18 684.037 1486.6 677.645C1484.49 675.217 1482.11 672.964 1479.6 670.577C1478.83 669.845 1478.04 669.101 1477.25 668.336C1473.86 665.065 1470.25 661.375 1466.63 656.53C1463.22 651.962 1459.72 646.74 1456.08 641.311C1455.19 639.991 1454.3 638.658 1453.39 637.319C1448.78 630.484 1443.94 623.504 1438.8 617.275C1428.54 604.847 1416.96 595.263 1403.43 595.956C1378.53 597.232 1354.5 619.12 1336.95 648.278C1319.38 677.465 1308.19 714.11 1309.07 745.208C1309.3 753.258 1310.69 759.281 1312.94 764.102C1315.2 768.926 1318.3 772.515 1321.92 775.714C1324.47 777.969 1327.29 780.044 1330.24 782.215C1331.46 783.111 1332.7 784.023 1333.95 784.971C1338.26 788.227 1342.75 791.939 1347.14 796.943Z" fill="url(#paint12_linear_3432_23676)" stroke="white"/>
<path opacity="0.1" d="M1473.42 758.198C1477.42 752.807 1481.08 749.203 1484.34 746.324C1485.41 745.375 1486.45 744.498 1487.44 743.657C1489.44 741.964 1491.27 740.42 1492.85 738.739C1495.25 736.193 1497.15 733.299 1498.44 728.995C1499.72 724.706 1500.39 719.032 1500.39 710.93C1500.39 643.955 1458.42 589.43 1406.39 589.43C1400.37 589.43 1395.73 590.652 1391.91 592.807C1388.1 594.961 1385.14 598.026 1382.43 601.656C1380.36 604.428 1378.43 607.552 1376.38 610.865C1375.75 611.881 1375.11 612.915 1374.45 613.962C1371.64 618.434 1368.48 623.175 1364.38 627.893C1360.51 632.34 1356.11 636.882 1351.53 641.606C1350.41 642.755 1349.29 643.914 1348.16 645.086C1342.39 651.069 1336.5 657.356 1331.2 664.08C1320.62 677.528 1312.39 692.772 1312.39 710.93C1312.39 744.447 1323.15 774.807 1340.27 796.797C1357.39 818.786 1380.9 832.43 1406.39 832.43C1413.09 832.43 1419.56 829.171 1425.73 824.005C1431.91 818.835 1437.84 811.715 1443.47 803.897C1449.1 796.076 1454.45 787.533 1459.46 779.508L1459.83 778.915C1464.7 771.106 1469.25 763.829 1473.42 758.198Z" fill="url(#paint13_linear_3432_23676)" stroke="white"/>
<path opacity="0.1" d="M1524.63 697.026C1521.41 671.414 1506.97 646.99 1481.54 629.737C1428.98 594.067 1350.31 601.658 1305.83 646.697C1300.68 651.907 1297.68 656.554 1296.11 660.986C1294.53 665.419 1294.39 669.609 1294.91 673.892C1295.31 677.159 1296.1 680.5 1296.93 684.042C1297.19 685.128 1297.45 686.233 1297.71 687.36C1298.8 692.177 1299.8 697.442 1299.97 703.514C1300.14 709.236 1299.92 715.475 1299.69 721.963C1299.64 723.54 1299.58 725.133 1299.53 726.736C1299.27 734.923 1299.13 743.382 1299.86 751.552C1301.31 767.879 1306.19 783.153 1320.46 792.833C1373.02 828.505 1452.58 820.011 1496.17 775.873C1518.68 753.079 1528.06 724.37 1524.63 697.026Z" fill="url(#paint14_linear_3432_23676)" stroke="white"/>
<path opacity="0.1" d="M1297.13 713.799C1296.52 720.092 1295.33 725.984 1294.18 731.619L1294.15 731.793C1292.99 737.474 1291.9 742.901 1291.54 748.181C1290.83 758.772 1293.1 768.793 1303.79 779.24C1347.76 822.193 1426.9 826.535 1480.56 789.022C1486.77 784.683 1490.74 780.575 1493.26 776.466C1495.78 772.354 1496.84 768.264 1497.27 763.979C1497.59 760.711 1497.55 757.312 1497.5 753.708C1497.49 752.604 1497.48 751.479 1497.47 750.334C1497.46 745.441 1497.62 740.12 1498.78 734.132C1499.88 728.488 1501.46 722.394 1503.11 716.059C1503.51 714.518 1503.92 712.963 1504.32 711.396C1506.37 703.397 1508.36 695.111 1509.44 686.98C1511.59 670.736 1510.14 654.993 1498.21 643.33C1454.24 600.374 1374.02 596.786 1321.44 633.548C1307.77 643.103 1302.36 656.404 1300.03 670.671C1298.86 677.805 1298.46 685.194 1298.19 692.491C1298.14 693.898 1298.09 695.302 1298.05 696.7C1297.85 702.557 1297.65 708.31 1297.13 713.799Z" fill="url(#paint15_linear_3432_23676)" stroke="white"/>
<path opacity="0.1" d="M1295.45 720.132C1300.41 750.151 1314.96 779.484 1338.36 801.16C1386.75 845.967 1454.04 842.135 1488.66 792.465C1492.67 786.717 1494.86 781.489 1495.85 776.42C1496.84 771.352 1496.6 766.48 1495.79 761.462C1495.17 757.634 1494.2 753.695 1493.18 749.519C1492.87 748.238 1492.55 746.936 1492.23 745.607C1490.88 739.93 1489.57 733.737 1488.9 726.657C1488.27 719.985 1487.93 712.735 1487.57 705.197C1487.49 703.364 1487.4 701.514 1487.31 699.65C1486.84 690.135 1486.24 680.296 1484.91 670.738C1482.27 651.632 1476.76 633.559 1463.64 621.406C1415.25 576.597 1347.26 581.424 1313.34 630.102C1295.82 655.237 1290.17 688.083 1295.45 720.132Z" fill="url(#paint16_linear_3432_23676)" stroke="white"/>
</g>
<path opacity="0.1" d="M174.485 127.006C205.873 148.308 189.079 160.802 192.987 192.491C197.16 226.324 220.09 279.562 192.2 307.8C138.187 362.487 39.7887 373.138 -25.1119 329.093C-60.0682 305.369 -49.1311 253.974 -50.0834 218.535C-50.8993 188.178 -68.2569 174.046 -42.8264 148.299C12.2909 92.4939 109.585 82.9609 174.485 127.006Z" fill="url(#paint17_linear_3432_23676)"/>
<path opacity="0.1" d="M-53.1865 228.707C-54.5099 196.559 -57.4758 175.583 -35.2158 153.496C-11.449 129.913 -12.2131 103.795 25.3898 102.985C98.2115 101.416 196.977 164.975 199.713 231.446C201.187 267.248 155.301 292.679 128.471 315.323C105.487 334.721 104.403 353.963 70.117 354.702C-4.19339 356.304 -50.4501 295.178 -53.1865 228.707Z" fill="url(#paint18_linear_3432_23676)"/>
<path opacity="0.1" d="M174.591 337.7C145.927 362.546 141.383 344.795 106.036 343.1C68.2954 341.291 -0.145603 353.745 -26.2966 323.889C-76.9406 266.068 -71.8242 175.407 -12.5563 124.032C19.3661 96.3612 73.7512 114.719 112.699 119.703C146.062 123.973 164.487 110.62 188.332 137.844C240.011 196.846 233.859 286.325 174.591 337.7Z" fill="url(#paint19_linear_3432_23676)"/>
<path opacity="0.1" d="M83.1113 357.504C45.1979 356.265 11.2543 339.907 -13.4074 314.654C-39.7385 287.692 -55.4885 250.589 -54.1916 210.92C-51.6801 134.098 13.9992 71.0544 92.3924 73.6173C134.616 74.9977 161.799 125.408 186.843 155.519C208.297 181.313 230.878 184.032 229.695 220.201C227.132 298.595 161.505 360.067 83.1113 357.504Z" fill="white"/>
<path opacity="0.1" d="M90.2129 358.924C52.2995 357.685 18.3559 341.327 -6.30584 316.074C-32.637 289.112 -48.387 252.009 -47.0901 212.34C-44.5785 135.517 21.1008 72.4743 99.494 75.0372C141.717 76.4176 168.901 126.827 193.945 156.939C215.398 182.733 237.979 185.452 236.797 221.621C234.234 300.014 168.606 361.487 90.2129 358.924Z" fill="url(#paint20_linear_3432_23676)"/>
<path opacity="0.1" d="M167.751 335.764C138.985 360.492 112.969 347.296 77.7239 345.373C40.093 343.32 -6.65165 350.744 -32.5248 320.646C-82.6306 262.359 -76.8867 171.501 -17.4075 120.37C14.6286 92.8311 68.7448 111.58 107.558 116.823C140.806 121.314 159.278 108.045 182.868 135.488C233.999 194.967 227.23 284.633 167.751 335.764Z" fill="url(#paint21_linear_3432_23676)"/>
<path opacity="0.1" d="M64.4185 349.897C26.5027 348.734 -7.47377 332.444 -32.1861 307.241C-58.5714 280.332 -74.3958 243.261 -73.1786 203.589C-70.8213 126.762 -5.26875 63.5867 73.1295 65.9921C115.356 67.2878 142.64 117.643 167.745 147.704C189.25 173.455 211.836 176.128 210.727 212.3C208.321 290.698 142.817 352.303 64.4185 349.897Z" fill="url(#paint22_linear_3432_23676)"/>
<path opacity="0.1" d="M-23.7096 121.349C0.0864665 91.8071 13.7219 106.929 48.73 102.418C86.1078 97.6017 145.071 74.9398 175.981 99.8377C235.84 148.055 246.695 238.445 197.492 299.528C170.991 332.428 114.369 323.821 75.2499 325.715C41.7391 327.337 25.9846 343.741 -2.19844 321.039C-63.2816 271.836 -72.9124 182.432 -23.7096 121.349Z" fill="url(#paint23_linear_3432_23676)"/>
<path opacity="0.1" d="M97.4236 326.304C65.272 327.527 44.3275 330.426 21.8568 308.109C-2.13495 284.282 -28.2615 284.965 -29.6907 247.38C-32.4585 174.594 29.5276 76.0819 96.0071 73.5539C131.814 72.1923 158.019 118.132 181.123 145.018C200.914 168.049 220.19 169.192 221.493 203.462C224.317 277.736 163.903 323.776 97.4236 326.304Z" fill="url(#paint24_linear_3432_23676)"/>
<path opacity="0.1" d="M216.683 228.039C216.683 265.973 200.293 257.695 175.86 283.169C149.772 310.367 114.354 370.058 74.6639 370.058C-2.19988 370.058 -67.3555 306.474 -67.3555 228.039C-67.3555 185.793 -17.8608 156.977 11.4164 130.962C36.496 108.677 38.4748 86.0195 74.6639 86.0195C153.099 86.0195 216.683 149.604 216.683 228.039Z" fill="url(#paint25_linear_3432_23676)"/>
<path opacity="0.1" d="M150.255 347.752C125.464 376.464 103.688 362.153 73.8976 360.836C42.0908 359.43 2.39998 368.981 -18.9486 335.521C-60.2923 270.724 -53.7842 167.669 -2.52462 108.301C25.0844 76.3252 70.5386 96.2396 103.288 101.23C131.341 105.505 147.213 90.0237 166.679 120.532C208.868 186.654 201.514 288.384 150.255 347.752Z" fill="url(#paint26_linear_3432_23676)"/>
<path opacity="0.1" d="M198.053 157.418C209.305 193.644 206.252 234.038 192.524 270.365C177.867 309.152 151.042 343.302 116.468 362.795C49.5128 400.545 -26.1041 371.822 -49.3698 296.917C-61.901 256.572 -27.3341 204.745 -9.54771 165.522C5.68857 131.923 0.691463 109.313 32.2153 91.5397C100.539 53.0181 174.787 82.5129 198.053 157.418Z" fill="url(#paint27_linear_3432_23676)"/>
<path opacity="0.1" d="M-19.9392 134.921C-3.48159 107.394 7.05611 122.686 32.6137 119.943C59.9014 117.014 102.427 97.7928 125.991 123.365C171.623 172.888 182.719 261.008 148.69 317.926C130.361 348.582 88.4752 337.604 59.8073 337.618C35.2496 337.631 24.2446 352.798 2.7598 329.482C-43.8058 278.946 -53.9684 191.838 -19.9392 134.921Z" fill="url(#paint28_linear_3432_23676)"/>
<path opacity="0.1" d="M109.624 328.68C78.0925 330.295 57.5332 333.458 35.7038 311.332C12.3967 287.707 -13.223 288.708 -14.2872 251.004C-16.3481 177.986 45.3042 78.3649 110.501 75.0246C145.617 73.2255 170.896 119.017 193.305 145.721C212.502 168.597 231.388 169.512 232.359 203.89C234.462 278.401 174.821 325.34 109.624 328.68Z" fill="url(#paint29_linear_3432_23676)"/>
<path opacity="0.1" d="M108.66 346.39C71.7379 355.09 76.0355 337.239 45.6368 319.3C13.1803 300.146 -53.0434 279.362 -62.1468 240.73C-79.7764 165.916 -32.8314 87.9133 43.5128 69.9234C84.6326 60.2337 124.032 101.8 156.069 124.33C183.512 143.629 206.019 140.359 214.32 175.583C232.31 251.927 185.004 328.4 108.66 346.39Z" fill="url(#paint30_linear_3432_23676)"/>
<path opacity="0.1" d="M216.683 194.664C216.683 223.684 200.293 217.351 175.86 236.839C149.772 257.645 114.354 303.309 74.6639 303.309C-2.19988 303.309 -67.3555 254.667 -67.3555 194.664C-67.3555 162.346 -17.8608 140.302 11.4164 120.401C36.496 103.353 38.4748 86.0195 74.6639 86.0195C153.099 86.0195 216.683 134.661 216.683 194.664Z" fill="url(#paint31_linear_3432_23676)"/>
<path opacity="0.1" d="M167.986 105.133C194.514 123.136 209.561 148.655 212.864 175.436C216.391 204.031 206.529 234.066 182.958 257.931C137.308 304.15 54.1474 313.151 -0.7034 275.927C-30.2467 255.877 -21.0031 212.44 -21.8081 182.489C-22.4976 156.832 -37.1673 144.889 -15.6748 123.129C30.9076 75.9654 113.135 67.9086 167.986 105.133Z" fill="url(#paint32_linear_3432_23676)"/>
<path opacity="0.1" d="M95.0387 365.54C55.4383 372.331 61.1456 353.739 30.1789 332.792C-2.88401 310.427 -71.5382 284.138 -78.6429 242.704C-92.4021 162.463 -37.6874 83.0624 44.1939 69.022C88.2961 61.4597 127.238 107.971 159.636 133.878C187.39 156.07 211.397 154.08 217.876 191.859C231.916 273.74 176.92 351.5 95.0387 365.54Z" fill="url(#paint33_linear_3432_23676)"/>
<path opacity="0.1" d="M190.375 309.994C217.507 283.484 203.365 260.257 201.56 228.456C199.633 194.501 208.089 152.113 175.559 129.372C112.563 85.3318 13.6831 92.4364 -42.4187 147.251C-72.6358 176.775 -52.6815 225.271 -47.2939 260.227C-42.6787 290.17 -57.2633 307.139 -27.6033 327.873C36.6808 372.814 134.273 364.809 190.375 309.994Z" fill="url(#paint34_linear_3432_23676)"/>
<path opacity="0.1" d="M115.987 113.471C140.23 137.115 154.237 169.483 157.666 202.82C161.327 238.413 152.929 275.11 132.055 303.47C91.6291 358.392 16.7263 365.317 -33.3994 316.428C-60.3977 290.097 -52.7819 236.77 -54.0092 199.635C-55.0606 167.825 -68.4999 152.288 -49.4667 126.43C-8.21464 70.3845 65.8617 64.5828 115.987 113.471Z" fill="url(#paint35_linear_3432_23676)"/>
<path opacity="0.5" d="M189.088 209.551C187.71 201.318 188.659 193.419 190.474 185.774C191.617 180.959 193.09 176.29 194.538 171.702C195.399 168.975 196.251 166.276 197.019 163.591C199.065 156.438 200.494 149.452 199.736 142.629C198.976 135.777 196.018 129.148 189.405 122.699C162.271 96.2345 117.782 81.5259 75.3076 79.9455C54.0615 79.155 33.2927 81.6476 15.4197 87.6139C-2.44871 93.5786 -17.4568 103.027 -27.1365 116.178C-36.0576 128.298 -45.2421 151.566 -51.8102 175.718C-58.3777 199.868 -62.3667 225.038 -60.8191 240.983C-59.914 250.31 -57.3894 257.345 -53.6377 263.088C-49.8913 268.823 -44.9409 273.239 -39.227 277.361C-35.7431 279.874 -31.9472 282.296 -27.9565 284.842C-25.4214 286.459 -22.8076 288.127 -20.1453 289.9C-13.2722 294.477 -6.01693 299.793 1.23 306.861C55.4212 359.714 131.445 359.171 169.29 307.755C188.83 281.209 195.074 245.317 189.088 209.551Z" stroke="#F9A788"/>
<path opacity="0.5" d="M179.098 144.865C171.705 139.523 166.543 132.837 162.312 125.756C159.646 121.294 157.371 116.718 155.135 112.221C153.805 109.546 152.49 106.9 151.114 104.322C147.446 97.4504 143.384 91.1387 137.597 86.4573C131.793 81.7621 124.306 78.7479 113.859 78.376C70.9123 76.8473 22.1123 96.2167 -15.0844 124.231C-33.6883 138.243 -49.4107 154.432 -60.057 171.281C-70.6999 188.125 -76.2932 205.667 -74.5695 222.374C-72.981 237.77 -63.1972 261.854 -50.5316 284.806C-37.8652 307.76 -22.2448 329.713 -8.90049 340.814C-1.09789 347.304 6.34011 350.928 13.8347 352.725C21.3204 354.52 28.8351 354.485 36.7845 353.701C41.6657 353.219 46.7049 352.456 52.0085 351.654C64.0259 349.836 77.4007 347.812 93.3696 348.38C136.279 349.908 173.719 337.498 199.599 316.55C225.478 295.603 239.819 266.097 236.45 233.445C232.971 199.724 211.16 168.034 179.098 144.865Z" stroke="#FFD19C"/>
<path opacity="0.1" d="M158.249 317.774C171.515 308.759 183.831 310.247 194.666 311.557C196.038 311.722 197.385 311.885 198.708 312.023C204.552 312.635 209.983 312.77 214.72 310.347C219.487 307.908 223.411 302.961 226.437 293.734C238.923 255.661 230.885 206.361 210.827 164.995C200.794 144.304 187.741 125.573 172.714 111.202C157.689 96.835 140.667 86.8046 122.688 83.5606C114.346 82.0553 104.235 83.0876 93.3272 85.7276C82.4141 88.369 70.6659 92.6293 59.0285 97.6142C35.7541 107.584 12.8704 120.475 -2.08753 129.19C-19.556 139.367 -28.8056 146.314 -35.3417 155.883C-41.5374 164.953 -45.2708 176.352 -51.3755 194.991C-51.6879 195.945 -52.0064 196.918 -52.3319 197.91C-77.2735 273.962 -37.9956 346.426 32.3189 359.113C50.5339 362.4 73.9313 357.55 96.7754 349.163C119.634 340.77 142.018 328.805 158.249 317.774Z" stroke="#F9CDD6"/>
</g>
<defs>
<linearGradient id="paint0_linear_3432_23676" x1="1306.24" y1="646.978" x2="1466.48" y2="805.237" gradientUnits="userSpaceOnUse">
<stop stop-color="#FFE0CC"/>
<stop offset="1" stop-color="#F3F3FD" stop-opacity="0"/>
</linearGradient>
<linearGradient id="paint1_linear_3432_23676" x1="1412.76" y1="812.427" x2="1408.2" y2="600.517" gradientUnits="userSpaceOnUse">
<stop stop-color="#D68262"/>
<stop offset="1" stop-color="#F9A788"/>
</linearGradient>
<linearGradient id="paint2_linear_3432_23676" x1="1524.28" y1="712.491" x2="1278.73" y2="711.321" gradientUnits="userSpaceOnUse">
<stop stop-color="#FFBB36"/>
<stop offset="1" stop-color="#D8F7F9"/>
</linearGradient>
<linearGradient id="paint3_linear_3432_23676" x1="1493.33" y1="703.212" x2="1302.96" y2="696.988" gradientUnits="userSpaceOnUse">
<stop stop-color="#FEA972"/>
<stop offset="1" stop-color="#E1F1FE" stop-opacity="0"/>
</linearGradient>
<linearGradient id="paint4_linear_3432_23676" x1="1496.27" y1="631.438" x2="1316.55" y2="785.933" gradientUnits="userSpaceOnUse">
<stop stop-color="#E29578"/>
<stop offset="1" stop-color="#E8C5B1"/>
</linearGradient>
<linearGradient id="paint5_linear_3432_23676" x1="1360.66" y1="599.372" x2="1452.15" y2="818" gradientUnits="userSpaceOnUse">
<stop stop-color="#FEA972"/>
<stop offset="1" stop-color="#F3DAFA" stop-opacity="0"/>
</linearGradient>
<linearGradient id="paint6_linear_3432_23676" x1="1332.07" y1="800.971" x2="1480.74" y2="616.402" gradientUnits="userSpaceOnUse">
<stop stop-color="#FFE0CC"/>
<stop offset="1" stop-color="#F3F3FD" stop-opacity="0"/>
</linearGradient>
<linearGradient id="paint7_linear_3432_23676" x1="1524.92" y1="696.796" x2="1276.54" y2="706.241" gradientUnits="userSpaceOnUse">
<stop stop-color="#D68262"/>
<stop offset="1" stop-color="#F9A788"/>
</linearGradient>
<linearGradient id="paint8_linear_3432_23676" x1="1406.39" y1="589.93" x2="1406.39" y2="826.93" gradientUnits="userSpaceOnUse">
<stop stop-color="#FFE8CC"/>
<stop offset="1" stop-color="#D8F7F9" stop-opacity="0"/>
</linearGradient>
<linearGradient id="paint9_linear_3432_23676" x1="1474.12" y1="633.007" x2="1306.76" y2="739.793" gradientUnits="userSpaceOnUse">
<stop stop-color="#E29578"/>
<stop offset="1" stop-color="#E8C5B1"/>
</linearGradient>
<linearGradient id="paint10_linear_3432_23676" x1="1371.94" y1="600.453" x2="1483.52" y2="798.365" gradientUnits="userSpaceOnUse">
<stop stop-color="#FEA972"/>
<stop offset="1" stop-color="#F3DAFA" stop-opacity="0"/>
</linearGradient>
<linearGradient id="paint11_linear_3432_23676" x1="1350.39" y1="805.121" x2="1504.36" y2="663.254" gradientUnits="userSpaceOnUse">
<stop stop-color="#FFE0CC"/>
<stop offset="1" stop-color="#F3F3FD" stop-opacity="0"/>
</linearGradient>
<linearGradient id="paint12_linear_3432_23676" x1="1495.71" y1="699.362" x2="1308.43" y2="704.648" gradientUnits="userSpaceOnUse">
<stop stop-color="#D68262"/>
<stop offset="1" stop-color="#F9A788"/>
</linearGradient>
<linearGradient id="paint13_linear_3432_23676" x1="1406.39" y1="589.93" x2="1406.39" y2="831.93" gradientUnits="userSpaceOnUse">
<stop stop-color="#FFE8CC"/>
<stop offset="1" stop-color="#D8F7F9" stop-opacity="0"/>
</linearGradient>
<linearGradient id="paint14_linear_3432_23676" x1="1306.24" y1="646.978" x2="1466.48" y2="805.237" gradientUnits="userSpaceOnUse">
<stop stop-color="#FEA972"/>
<stop offset="1" stop-color="#E1F1FE" stop-opacity="0"/>
</linearGradient>
<linearGradient id="paint15_linear_3432_23676" x1="1480.2" y1="788.672" x2="1355.52" y2="610.32" gradientUnits="userSpaceOnUse">
<stop stop-color="#E29578"/>
<stop offset="1" stop-color="#E8C5B1"/>
</linearGradient>
<linearGradient id="paint16_linear_3432_23676" x1="1488.29" y1="792.125" x2="1294.94" y2="657.372" gradientUnits="userSpaceOnUse">
<stop stop-color="#FEA972"/>
<stop offset="1" stop-color="#F3DAFA" stop-opacity="0"/>
</linearGradient>
<linearGradient id="paint17_linear_3432_23676" x1="-42.8264" y1="148.299" x2="155.888" y2="344.565" gradientUnits="userSpaceOnUse">
<stop stop-color="#FFC39C"/>
<stop offset="0.546875" stop-color="#F3F3FD" stop-opacity="0.0989583"/>
<stop offset="1" stop-color="#F3F3FD" stop-opacity="0"/>
</linearGradient>
<linearGradient id="paint18_linear_3432_23676" x1="78.3617" y1="354.525" x2="72.9189" y2="101.961" gradientUnits="userSpaceOnUse">
<stop stop-color="#ED8081"/>
<stop offset="0.411458" stop-color="#D1BBFD" stop-opacity="0.109375"/>
<stop offset="1" stop-color="#D1BBFD" stop-opacity="0"/>
</linearGradient>
<linearGradient id="paint19_linear_3432_23676" x1="188.332" y1="137.844" x2="-25.3331" y2="324.989" gradientUnits="userSpaceOnUse">
<stop stop-color="#FFC199"/>
<stop offset="0.723958" stop-color="#D8F7F9" stop-opacity="0.0885417"/>
<stop offset="1" stop-color="#D8F7F9"/>
</linearGradient>
<linearGradient id="paint20_linear_3432_23676" x1="236.797" y1="221.621" x2="-47.0901" y2="212.34" gradientUnits="userSpaceOnUse">
<stop stop-color="#F3A6AA"/>
<stop offset="0.421875" stop-color="#E1F1FE" stop-opacity="0.0989583"/>
<stop offset="1" stop-color="#E1F1FE" stop-opacity="0"/>
</linearGradient>
<linearGradient id="paint21_linear_3432_23676" x1="182.868" y1="135.488" x2="-32.5248" y2="320.646" gradientUnits="userSpaceOnUse">
<stop stop-color="#FFC700"/>
<stop offset="0.510417" stop-color="#C5C8FD" stop-opacity="0.0989583"/>
<stop offset="1" stop-color="#C2C5FD" stop-opacity="0"/>
</linearGradient>
<linearGradient id="paint22_linear_3432_23676" x1="210.727" y1="212.3" x2="-73.1786" y2="203.589" gradientUnits="userSpaceOnUse">
<stop stop-color="#FFC8A4"/>
<stop offset="0.307292" stop-color="#F3DAFA" stop-opacity="0.0885417"/>
<stop offset="1" stop-color="#F3DAFA" stop-opacity="0"/>
</linearGradient>
<linearGradient id="paint23_linear_3432_23676" x1="-2.19844" y1="321.039" x2="175.981" y2="99.8377" gradientUnits="userSpaceOnUse">
<stop stop-color="#FFC39C"/>
<stop offset="0.546875" stop-color="#F3F3FD" stop-opacity="0.0989583"/>
<stop offset="1" stop-color="#F3F3FD" stop-opacity="0"/>
</linearGradient>
<linearGradient id="paint24_linear_3432_23676" x1="221.18" y1="195.221" x2="-31.3091" y2="204.822" gradientUnits="userSpaceOnUse">
<stop stop-color="#ED8081"/>
<stop offset="0.411458" stop-color="#D1BBFD" stop-opacity="0.109375"/>
<stop offset="1" stop-color="#D1BBFD" stop-opacity="0"/>
</linearGradient>
<linearGradient id="paint25_linear_3432_23676" x1="74.6639" y1="86.0195" x2="74.6639" y2="370.058" gradientUnits="userSpaceOnUse">
<stop stop-color="#FEA972"/>
<stop offset="0.453125" stop-color="#D8F7F9" stop-opacity="0.0885417"/>
<stop offset="1" stop-color="#D8F7F9" stop-opacity="0"/>
</linearGradient>
<linearGradient id="paint26_linear_3432_23676" x1="166.679" y1="120.532" x2="-62.7294" y2="266.904" gradientUnits="userSpaceOnUse">
<stop stop-color="#FFC700"/>
<stop offset="0.510417" stop-color="#C5C8FD" stop-opacity="0.0989583"/>
<stop offset="1" stop-color="#C2C5FD" stop-opacity="0"/>
</linearGradient>
<linearGradient id="paint27_linear_3432_23676" x1="32.2153" y1="91.5397" x2="168.584" y2="333.411" gradientUnits="userSpaceOnUse">
<stop stop-color="#FFC8A4"/>
<stop offset="0.307292" stop-color="#F3DAFA" stop-opacity="0.0885417"/>
<stop offset="1" stop-color="#F3DAFA" stop-opacity="0"/>
</linearGradient>
<linearGradient id="paint28_linear_3432_23676" x1="2.75981" y1="329.482" x2="172.119" y2="173.427" gradientUnits="userSpaceOnUse">
<stop stop-color="#FFC39C"/>
<stop offset="0.546875" stop-color="#F3F3FD" stop-opacity="0.0989583"/>
<stop offset="1" stop-color="#F3F3FD" stop-opacity="0"/>
</linearGradient>
<linearGradient id="paint29_linear_3432_23676" x1="232.125" y1="195.623" x2="-15.6529" y2="202.617" gradientUnits="userSpaceOnUse">
<stop stop-color="#ED8081"/>
<stop offset="0.411458" stop-color="#D1BBFD" stop-opacity="0.109375"/>
<stop offset="1" stop-color="#D1BBFD" stop-opacity="0"/>
</linearGradient>
<linearGradient id="paint30_linear_3432_23676" x1="214.32" y1="175.583" x2="-62.1468" y2="240.73" gradientUnits="userSpaceOnUse">
<stop stop-color="#FEA972"/>
<stop offset="0.453125" stop-color="#D8F7F9" stop-opacity="0.0885417"/>
<stop offset="1" stop-color="#D8F7F9" stop-opacity="0"/>
</linearGradient>
<linearGradient id="paint31_linear_3432_23676" x1="74.6639" y1="86.0195" x2="74.6639" y2="303.309" gradientUnits="userSpaceOnUse">
<stop stop-color="#FEA972"/>
<stop offset="0.453125" stop-color="#D8F7F9" stop-opacity="0.0885417"/>
<stop offset="1" stop-color="#D8F7F9" stop-opacity="0"/>
</linearGradient>
<linearGradient id="paint32_linear_3432_23676" x1="-15.6748" y1="123.129" x2="152.268" y2="289.003" gradientUnits="userSpaceOnUse">
<stop stop-color="#F3A6AA"/>
<stop offset="0.421875" stop-color="#E1F1FE" stop-opacity="0.0989583"/>
<stop offset="1" stop-color="#E1F1FE" stop-opacity="0"/>
</linearGradient>
<linearGradient id="paint33_linear_3432_23676" x1="217.876" y1="191.859" x2="-78.6429" y2="242.704" gradientUnits="userSpaceOnUse">
<stop stop-color="#FEA972"/>
<stop offset="0.453125" stop-color="#D8F7F9" stop-opacity="0.0885417"/>
<stop offset="1" stop-color="#D8F7F9" stop-opacity="0"/>
</linearGradient>
<linearGradient id="paint34_linear_3432_23676" x1="-27.6033" y1="327.873" x2="132.306" y2="99.1337" gradientUnits="userSpaceOnUse">
<stop stop-color="#FFC700"/>
<stop offset="0.510417" stop-color="#C5C8FD" stop-opacity="0.0989583"/>
<stop offset="1" stop-color="#C2C5FD" stop-opacity="0"/>
</linearGradient>
<linearGradient id="paint35_linear_3432_23676" x1="-49.4667" y1="126.43" x2="152.789" y2="275.3" gradientUnits="userSpaceOnUse">
<stop stop-color="#FFC8A4"/>
<stop offset="0.307292" stop-color="#F3DAFA" stop-opacity="0.0885417"/>
<stop offset="1" stop-color="#F3DAFA" stop-opacity="0"/>
</linearGradient>
<clipPath id="clip0_3432_23676">
<rect width="1512" height="821" fill="white" transform="translate(0 0.785156)"/>
</clipPath>
</defs>
</svg>
